<svg xmlns="http://www.w3.org/2000/svg" xmlns:xlink="http://www.w3.org/1999/xlink" width="42" height="42" viewBox="0 0 42 42"><defs><linearGradient id="b" x1="1073.403" x2="1097.116" y1="516.451" y2="544.308" gradientTransform="translate(-1438.388 316.47) scale(1.34562)" gradientUnits="userSpaceOnUse" xlink:href="#a"/><linearGradient id="a"><stop offset="0" stop-color="#16ff6a"/><stop offset="1" stop-color="#0090a5"/></linearGradient></defs><g transform="translate(0 -1010.362)"><rect width="42" height="42" y="1010.362" fill="url(#b)" rx="8.876" ry="8.876"/><path fill="#fff" fill-rule="evenodd" style="line-height:normal;text-indent:0;text-align:start;text-decoration-line:none;text-decoration-style:solid;text-decoration-color:#000;text-transform:none;block-progression:tb;isolation:auto;mix-blend-mode:normal" d="m 8.509724,1016.3374 a 0.50005,0.50005 0 0 0 -0.4921875,0.5058 l 0,26.8692 a 0.50004997,0.50004997 0 0 0 0.1425781,0.498 0.50005,0.50005 0 0 0 0.4882813,0.1348 l 26.8691401,0 a 0.50004997,0.50004997 0 1 0 0,-1 l -26.4999995,0 0,-26.502 a 0.50005,0.50005 0 0 0 -0.5078125,-0.5058 z m 26.015625,6.0254 c -0.822505,0 -1.5,0.6775 -1.5,1.5 0,0.2575 0.07299,0.4962 0.189453,0.709 l -7.115234,7.9062 c -0.177202,-0.074 -0.371398,-0.1152 -0.574219,-0.1152 -0.230087,0 -0.446843,0.056 -0.642578,0.1504 l -3.009766,-3.0098 c 0.09433,-0.1957 0.152344,-0.4106 0.152344,-0.6406 0,-0.8225 -0.677495,-1.5 -1.5,-1.5 -0.822505,0 -1.5,0.6775 -1.5,1.5 0,0.1991 0.04139,0.3879 0.113281,0.5625 l -6.894531,6.1308 c -0.21482,-0.1194 -0.457686,-0.1933 -0.71875,-0.1933 -0.822505,0 -1.5,0.6775 -1.5,1.5 0,0.8225 0.677495,1.5 1.5,1.5 0.822504,0 1.5,-0.6775 1.5,-1.5 0,-0.1985 -0.04184,-0.3884 -0.113282,-0.5625 l 6.896485,-6.1309 c 0.214376,0.1188 0.456496,0.1934 0.716797,0.1934 0.229557,0 0.445235,-0.058 0.640625,-0.1524 l 3.011719,3.0117 c -0.09386,0.1953 -0.152344,0.4113 -0.152344,0.6407 0,0.8225 0.677495,1.5 1.5,1.5 0.822505,0 1.5,-0.6775 1.5,-1.5 0,-0.2575 -0.07299,-0.4982 -0.189453,-0.711 l 7.117187,-7.9062 c 0.176741,0.074 0.370095,0.1172 0.572266,0.1172 0.822505,0 1.5,-0.6775 1.5,-1.5 0,-0.8225 -0.677495,-1.5 -1.5,-1.5 z m 0,1 c 0.282065,0 0.5,0.2179 0.5,0.5 0,0.2821 -0.217935,0.5 -0.5,0.5 -0.282065,0 -0.5,-0.2179 -0.5,-0.5 0,-0.2821 0.217935,-0.5 0.5,-0.5 z m -14,5 c 0.282065,0 0.5,0.2179 0.5,0.5 0,0.2821 -0.217935,0.5 -0.5,0.5 -0.129983,0 -0.242384,-0.051 -0.330078,-0.1289 a 0.50004997,0.50004997 0 0 0 -0.05859,-0.066 c -0.06575,-0.085 -0.111328,-0.186 -0.111328,-0.3047 0,-0.2821 0.217935,-0.5 0.5,-0.5 z m 5,5 c 0.282065,0 0.5,0.2179 0.5,0.5 0,0.2821 -0.217935,0.5 -0.5,0.5 -0.282065,0 -0.5,-0.2179 -0.5,-0.5 0,-0.2821 0.217935,-0.5 0.5,-0.5 z m -14,3 c 0.141032,0 0.265726,0.053 0.355468,0.1426 0.08974,0.09 0.144532,0.2163 0.144532,0.3574 0,0.2821 -0.217936,0.5 -0.5,0.5 -0.282065,0 -0.5,-0.2179 -0.5,-0.5 0,-0.2821 0.217935,-0.5 0.5,-0.5 z" color="#000" font-family="sans-serif" font-weight="400" overflow="visible" white-space="normal"/></g></svg>