<svg xmlns="http://www.w3.org/2000/svg" xmlns:xlink="http://www.w3.org/1999/xlink" width="42" height="42" viewBox="0 0 42 42"><defs><linearGradient id="b" x1="1073.403" x2="1097.116" y1="516.451" y2="544.308" gradientTransform="translate(-1438.388 316.47) scale(1.34562)" gradientUnits="userSpaceOnUse" xlink:href="#a"/><linearGradient id="a"><stop offset="0" stop-color="#16ff6a"/><stop offset="1" stop-color="#0090a5"/></linearGradient></defs><g transform="translate(0 -1010.362)"><rect width="42" height="42" y="1010.362" fill="url(#b)" rx="8.876" ry="8.876"/><path style="line-height:normal;text-indent:0;text-align:start;text-decoration-line:none;text-decoration-style:solid;text-decoration-color:#000;text-transform:none;block-progression:tb;isolation:auto;mix-blend-mode:normal" fill="#fff" d="m 14.205078,1017.3541 a 0.50004997,0.50004997 0 0 0 -0.5,0.5 c 0,0.7527 -0.393734,1.5638 -1.009765,2.1758 -0.616032,0.612 -1.434426,1.0059 -2.195313,1.0059 a 0.50004997,0.50004997 0 0 0 -0.5,0.5 l 0,13.955 c 0,2.7316 2.275321,5.1503 4.710938,6.9278 1.217808,0.8887 2.491798,1.6171 3.601562,2.1269 1.015323,0.4665 1.841724,0.7518 2.505859,0.791 a 0.50005,0.50005 0 0 0 0.373047,0 c 0.653941,-0.056 1.480358,-0.345 2.496094,-0.8144 1.108429,-0.5123 2.383936,-1.2384 3.601562,-2.1231 C 29.724315,1040.6259 32,1038.2224 32,1035.4908 l 0,-13.955 a 0.50004997,0.50004997 0 0 0 -0.5,-0.5 c -0.760887,0 -1.579282,-0.3939 -2.195312,-1.0059 -0.616033,-0.612 -1.009766,-1.4231 -1.009766,-2.1758 a 0.50004997,0.50004997 0 0 0 -0.5,-0.5 l -6.753906,0 a 0.50005,0.50005 0 0 0 -0.04102,0 l -0.0078,0 -6.78711,0 z m 0.384766,1 5.910156,0 0,12.5 -9.5,0 0,-8.9336 c 0.898379,-0.1351 1.749931,-0.5334 2.400391,-1.1797 0.649907,-0.6456 1.052709,-1.4928 1.189453,-2.3867 z m 6.910156,0 5.910156,0 c 0.136744,0.8939 0.539546,1.7411 1.189453,2.3867 0.650459,0.6463 1.502012,1.0446 2.400391,1.1797 l 0,8.9336 -9.5,0 0,-12.5 z m -10.5,13.5 9.5,0 0,12.4141 c -0.438205,-0.1051 -1.065541,-0.3094 -1.769531,-0.6328 -1.045108,-0.4802 -2.270657,-1.1796 -3.429688,-2.0254 C 12.98272,1039.9183 11,1037.641 11,1035.4908 l 0,-3.6367 z m 10.5,0 9.5,0 0,3.6367 c 0,2.1502 -1.980405,4.4114 -4.298828,6.0957 -1.159212,0.8422 -2.387152,1.5399 -3.433594,2.0235 -0.701607,0.3242 -1.325677,0.536 -1.767578,0.6484 l 0,-12.4043 z" color="#000" font-family="sans-serif" font-weight="400" overflow="visible" white-space="normal"/></g></svg>