<svg xmlns="http://www.w3.org/2000/svg" xmlns:xlink="http://www.w3.org/1999/xlink" width="42" height="42" viewBox="0 0 42 42"><defs><linearGradient id="b" x1="1073.403" x2="1097.116" y1="516.451" y2="544.308" gradientTransform="translate(-1438.388 316.47) scale(1.34562)" gradientUnits="userSpaceOnUse" xlink:href="#a"/><linearGradient id="a"><stop offset="0" stop-color="#16ff6a"/><stop offset="1" stop-color="#0090a5"/></linearGradient></defs><g transform="translate(0 -1010.362)"><rect width="42" height="42" y="1010.362" fill="url(#b)" rx="8.876" ry="8.876"/><path fill="#fff" style="line-height:normal;text-indent:0;text-align:start;text-decoration-line:none;text-decoration-style:solid;text-decoration-color:#000;text-transform:none;block-progression:tb;isolation:auto;mix-blend-mode:normal" d="m 11.205084,1022.4135 a 0.50098675,0.49911496 75.00012 0 0 -0.410156,0.25 l -4.7285158,8.2266 a 0.50098675,0.49911496 75.00012 0 0 0.1835938,0.6836 l 3.0722656,1.7812 a 0.50098675,0.49911496 75.00012 0 0 0.6816404,-0.1816 l 1.136719,-1.9766 0.84375,0.4903 0.925781,0.5371 c 0.0052,1.1641 0.458427,2.2909 1.296875,3.1308 -0.235184,0.4524 -0.251026,1.0098 0.01953,1.4805 0.300583,0.523 0.867947,0.6885 1.435547,0.6504 -0.01673,0.2885 -0.04356,0.5848 0.109375,0.8516 0.398298,0.6939 1.267642,0.9155 1.978516,0.58 0.01956,0.2133 -0.03273,0.4307 0.08008,0.627 0.419936,0.7311 1.36901,0.9849 2.097656,0.5625 l 1.072264,-0.6211 1.072266,0.6211 c 0.728646,0.4224 1.67772,0.1686 2.097656,-0.5625 0.112809,-0.1963 0.06052,-0.4137 0.08008,-0.627 0.71091,0.3357 1.580232,0.1139 1.978516,-0.58 0.153563,-0.2671 0.125999,-0.5626 0.109375,-0.8516 0.567664,0.038 1.135079,-0.1273 1.435547,-0.6504 0.301086,-0.5237 0.159997,-1.0987 -0.158204,-1.5723 0.258054,-0.1302 0.528172,-0.2567 0.681641,-0.5234 0.01952,-0.034 0.03025,-0.071 0.04687,-0.1055 a 0.50004997,0.50004997 0 0 0 0.166016,-0.1816 c 0.39348,-0.6797 0.597612,-1.4555 0.597656,-2.2422 l 0.394531,-0.2285 0.513672,-0.2969 0.511719,-0.2969 0.333984,-0.1933 1.134766,1.9746 a 0.50005,0.50005 0 0 0 0.683594,0.1836 l 3.070315,-1.7793 a 0.50005,0.50005 0 0 0 0.183594,-0.6817 l -4.728516,-8.2265 a 0.50005,0.50005 0 0 0 -0.458984,-0.25 0.50005,0.50005 0 0 0 -0.22461,0.066 l -3.072265,1.7793 a 0.50005,0.50005 0 0 0 -0.181641,0.6816 l 0.140625,0.2442 -0.337891,0.1953 -0.511718,0.2969 -0.511719,0.2968 -0.40625,0.2344 c -0.830385,-0.4764 -1.794393,-0.6856 -2.75,-0.5684 -0.286648,0.035 -0.573121,0.098 -0.853516,0.1915 -0.280394,0.093 -0.55471,0.217 -0.820312,0.371 a 0.50004997,0.50004997 0 0 0 -0.002,0 l -0.134766,0.08 -0.07422,0.043 -0.234375,-0.127 c -0.535552,-0.2923 -1.104672,-0.4683 -1.677734,-0.5351 l 0,0 c -0.950298,-0.1108 -1.905154,0.089 -2.728516,0.5527 l -0.92378,-0.5351 -0.847656,-0.4922 0.138672,-0.2422 a 0.50098675,0.49911496 75.00012 0 0 -0.183594,-0.6836 l -3.070312,-1.7812 a 0.50098675,0.49911496 75.00012 0 0 -0.273438,-0.068 z m 0.207031,1.1856 2.207032,1.2793 -4.2304691,7.3593 -2.2070313,-1.2792 4.2304684,-7.3594 z m 19.175782,0 4.230468,7.3594 -2.207031,1.2792 -4.228516,-7.3593 2.205079,-1.2793 z m -2.681641,2.4551 2.457031,4.2734 -0.33789,0.1953 -0.511719,0.2969 -0.511719,0.2969 -0.02539,0.016 c -0.09258,-0.3739 -0.237574,-0.7392 -0.43164,-1.0918 a 0.50004997,0.50004997 0 0 0 -0.0078,-0.016 c -0.0053,-0.01 -0.0083,-0.02 -0.01367,-0.029 a 0.50004997,0.50004997 0 0 0 -0.01563,-0.031 l -1.21289,-2.1113 c -0.216667,-0.3769 -0.483314,-0.7053 -0.78125,-0.9922 l 0.0332,-0.019 0.511719,-0.2969 0.513672,-0.2969 0.333984,-0.1933 z m -13.810547,0 0.845703,0.4902 0.542969,0.3163 c -0.296571,0.2844 -0.562679,0.6135 -0.779297,0.9903 l -1.21289,2.1113 c -0.217435,0.3782 -0.352647,0.7758 -0.451172,1.1797 l -0.554688,-0.3223 -0.847656,-0.4922 2.457031,-4.2734 z m 9.587891,0.5546 c 0.660571,0.047 1.298228,0.2866 1.833984,0.6973 0.357171,0.2738 0.669146,0.6238 0.910156,1.043 l 1.212891,2.1113 c 0.440703,0.7667 0.554153,1.6206 0.398437,2.416 -0.09073,-0.09 -0.189359,-0.1734 -0.304687,-0.2402 l -4.091797,-2.3731 c 0.02568,-0.3024 -0.03013,-0.6118 -0.175781,-0.8964 a 0.50004997,0.50004997 0 0 0 -0.04297,-0.094 c 0,0 0,0 0,0 -0.0041,-0.01 -0.0095,-0.013 -0.01367,-0.019 a 0.50004997,0.50004997 0 0 0 -0.03125,-0.041 c -0.04858,-0.076 -0.09761,-0.1536 -0.15625,-0.2188 -0.07527,-0.084 -0.159162,-0.1575 -0.248047,-0.2227 0,0 -0.002,0 -0.002,0 -0.535954,-0.3922 -1.288393,-0.4458 -1.902344,-0.09 a 0.50004997,0.50004997 0 0 0 -0.01953,0.012 l -0.02539,0.016 -2.234375,1.2968 a 0.50004997,0.50004997 0 0 0 -0.08789,0.059 l -0.04102,0.023 c -0.503093,0.2918 -1.09857,0.097 -1.572265,-0.3301 l 1.332031,-0.7754 1.384766,-0.8027 a 0.5001752,0.5001752 0 0 0 0.01367,-0.01 l 0.0039,0 1.449219,-0.8399 a 0.50004997,0.50004997 0 0 0 0.002,0 l 0.443359,-0.2597 c 0.621531,-0.3605 1.304272,-0.5061 1.964844,-0.459 z m -5.375,0.022 c 0.548396,-0.037 1.110635,0.072 1.65039,0.3028 l -0.636718,0.3691 a 0.5001752,0.5001752 0 0 0 -0.04102,0.025 l -1.361324,0.789 -1.919922,1.1191 a 0.50004997,0.50004997 0 0 0 -0.181641,0.6816 c 0.69377,1.2068 2.18837,1.7083 3.345703,1.0371 l 2.238282,-1.2988 a 0.50004997,0.50004997 0 0 0 0.01953,-0.014 l 0.115234,-0.074 0.03516,-0.02 c 0.09365,-0.054 0.190073,-0.089 0.285156,-0.1035 0.190166,-0.03 0.373826,0.016 0.517578,0.123 0.05553,0.041 0.09921,0.1 0.140625,0.1582 a 0.50004997,0.50004997 0 0 0 -0.175781,0.9395 l 0.455078,0.2637 a 0.50004997,0.50004997 0 0 0 0.002,0 0.50004997,0.50004997 0 0 0 0.08594,0.049 l 4.351563,2.5234 c 0.263954,0.1528 0.348533,0.4718 0.195313,0.7383 -0.152903,0.2658 -0.465233,0.35 -0.728516,0.1973 l -4.863281,-2.8203 -0.511719,-0.2969 a 0.50014708,0.50014708 0 0 0 -0.501953,0.8652 l 0.511719,0.2969 0.296874,0.1719 4.566407,2.6484 c 0.0012,7e-4 0.0027,-7e-4 0.0039,0 l 0.507813,0.2949 c 0.264032,0.1529 0.348518,0.47 0.195312,0.7364 -0.153188,0.2668 -0.464513,0.3503 -0.728516,0.1972 l -0.511718,-0.2969 -4.863282,-2.8203 -0.511718,-0.2968 a 0.50004997,0.50004997 0 0 0 -0.5,0.8652 l 0.511718,0.2969 4.861328,2.8203 0.002,0 c 0.262445,0.1534 0.348138,0.4686 0.195312,0.7344 -0.153073,0.2667 -0.464711,0.3502 -0.728516,0.1972 l -1.02539,-0.5937 -0.947266,-0.5508 -4.425781,-2.5664 a 0.5001752,0.5001752 0 1 0 -0.501953,0.8652 l 1.023437,0.5938 4.34961,2.5234 0.002,0 c 0.264077,0.153 0.348481,0.4718 0.195312,0.7383 -0.153283,0.2666 -0.464813,0.3482 -0.728654,0.1952 l -5.0625,-2.9335 -0.002,0 a 0.50004997,0.50004997 0 0 0 -0.0059,0 l -0.3046,-0.1758 -1.589844,-0.9219 c -0.102721,-0.06 -0.187086,-0.1371 -0.28125,-0.2051 a 0.50004997,0.50004997 0 0 0 -0.298828,-0.2207 c -1.192505,-1.071 -1.510265,-2.8546 -0.669922,-4.3164 l 1.212891,-2.1113 c 0.602493,-1.0481 1.633783,-1.6458 2.736328,-1.7207 z m -9.3730471,3.2617 a 0.59104837,0.59360856 0 0 0 -0.5253907,0.2969 0.59104837,0.59360856 0 0 0 0.2167969,0.8105 0.59104837,0.59360856 0 0 0 0.8066407,-0.2168 0.59104837,0.59360856 0 0 0 -0.2167969,-0.8105 0.59104837,0.59360856 0 0 0 -0.28125,-0.08 z m 24.1289061,0 a 0.59104837,0.59360856 0 0 0 -0.28125,0.08 0.59104837,0.59360856 0 0 0 -0.216797,0.8105 0.59104837,0.59360856 0 0 0 0.806641,0.2168 0.59104837,0.59360856 0 0 0 0.216797,-0.8105 0.59104837,0.59360856 0 0 0 -0.525391,-0.2969 z m -18.037109,6.1172 c 0.02868,0.018 0.05086,0.042 0.08008,0.059 l 0.765625,0.4433 a 0.50004997,0.50004997 0 0 0 -0.05078,0.025 c -0.264055,0.1531 -0.575077,0.07 -0.728516,-0.1972 -0.06128,-0.1066 -0.0782,-0.2208 -0.06641,-0.3301 z m 1.83789,1.0781 1.070313,0.6192 -0.568359,0.33 c -0.263843,0.1529 -0.575457,0.071 -0.728516,-0.1953 -0.153206,-0.2665 -0.06672,-0.5834 0.197266,-0.7363 a 0.50017545,0.50017545 0 0 0 0.0293,-0.018 z m 2.064454,1.1953 1.074218,0.6231 -0.578125,0.334 c -0.263841,0.153 -0.575371,0.071 -0.728515,-0.1954 -0.153169,-0.2665 -0.06681,-0.5852 0.197265,-0.7382 a 0.50013195,0.50013195 0 0 0 0.03516,-0.024 z" color="#000" font-family="sans-serif" font-weight="400" overflow="visible" white-space="normal"/></g></svg>